<?xml version="1.0" encoding="utf-8"?>
<!-- Generator: Adobe Illustrator 17.0.0, SVG Export Plug-In . SVG Version: 6.00 Build 0)  -->
<!DOCTYPE svg PUBLIC "-//W3C//DTD SVG 1.1//EN" "http://www.w3.org/Graphics/SVG/1.1/DTD/svg11.dtd">
<svg version="1.1" id="Layer_1" xmlns="http://www.w3.org/2000/svg" xmlns:xlink="http://www.w3.org/1999/xlink" x="0px" y="0px"
	 width="633.9px" height="485.2px" viewBox="0 0 633.9 485.2" style="enable-background:new 0 0 633.9 485.2;" xml:space="preserve"
	>
<style type="text/css">
	.st0{fill:#FFCC2D;}
	.st1{fill:#F2F2F2;}
	.st2{fill:#1A1A1A;}
	.st3{fill:#FFFFFF;}
	.st4{fill:#A6A8AB;}
	.st5{fill:#A3D2D9;}
</style>
<path class="st3" d="M186.1,212.1l6.5-0.8c0,0,2.5-18.1-10.3-17.7c-12.7,0.4-16.8,17.7-16.7,35.6c0.1,17.9,1.6,35.2,15.1,34.8
	s10.5-17.9,10.5-17.9l-6.8,0.7c0,0,2.8,10.4-3.3,10.4c-7.3,0-9.5-9.2-8.9-27.5c0.6-18.6,1.4-29.5,10-29.5
	C187,200.3,186.1,212.1,186.1,212.1z"/>
<polygon class="st3" points="304.1,171.6 297.3,171.6 298.9,103.9 305.7,103.9 "/>
<polygon class="st3" points="358.5,172.2 351.8,172.2 354.5,104.9 361.3,104.9 "/>
<polygon class="st3" points="408.8,356.1 402.1,356.1 404.8,288.7 411.6,288.8 "/>
<path class="st3" d="M226.2,153.8c-3.2-9-11.7-9.1-16.7-7.9l0.5-14.2c18.5-2,19.6-27.9,19.6-27.9l-6.7,0c0,19.6-9.6,22.6-12.6,22.6
	l0.6-22.5l-6.9,0l-1.9,67.6l7,0l0.4-20.5c14.6-4.8,13.2,20.5,13.2,20.5l6.6,0C229.3,171.5,230.1,165,226.2,153.8z"/>
<g>
	<polygon class="st3" points="384.9,356.3 378.8,356.3 380.4,289.2 386.5,289.2 	"/>
	<polygon class="st3" points="368.8,289.2 397.1,288.7 397.1,293.8 368.7,294.3 	"/>
</g>
<g>
	<polygon class="st3" points="277.4,264 271.2,264 272.9,196.9 279,196.9 	"/>
	<polygon class="st3" points="261.3,196.8 289.6,196.3 289.6,201.4 261.2,201.9 	"/>
</g>
<path class="st3" d="M447.8,320c0-4.5-0.2-7.9-0.4-10.5l0-0.7l0,0c0-0.4-0.1-0.8-0.1-1.1c-0.9-12.3-3.8-19.1-14-19.1
	c-9.4,0-12.9,6.7-13.9,19.3c-0.4,4.3-0.4,7.4-0.4,12.1l0,1.6c0,1.2,0,2.4,0,3.4c0,4.5,0.2,7.9,0.4,10.5l0,0.7l0,0
	c0,0.4,0.1,0.8,0.1,1.1c0.9,12.3,3.8,19.1,14,19.1c9.4,0,12.9-6.7,13.9-19.3c0.4-4.3,0.4-7.4,0.4-12.1l0-1.6
	C447.8,322.2,447.8,321,447.8,320z M433.4,349.7c-5.8,0-6.7-7.7-7.2-12.4c0-0.1-0.4-7.8-0.4-15.4c0-7.2,0.4-14.2,0.4-14.4
	c0.6-6.5,1.4-12.4,7.2-12.4s6.7,7.7,7.2,12.4c0,0.2,0.4,7.4,0.4,14.7c0,7.4-0.4,14.8-0.4,15C440.1,343.7,439.2,349.7,433.4,349.7z"
	/>
<polygon class="st3" points="404.6,104.3 425.4,159.3 423.4,104.3 428.2,104.3 430.5,171.5 423.7,171.5 403,115.6 403.9,171.4 
	399,171.5 398,104.3 "/>
<polygon class="st3" points="319.1,104.3 339.9,159.3 337.9,104.3 342.7,104.3 345,171.5 338.2,171.5 317.5,115.6 318.4,171.4 
	313.5,171.5 312.5,104.3 "/>
<g>
	<g>
		<path class="st3" d="M336.7,320.1c-0.4-16.7-4.8-32.3-18.1-31.7l0.4,4.1c6.9,0.6,10.8,12.5,11.1,27.3c0.4,17.1-1.7,28.8-9.5,30.8
			c-1.9,0.5-5.7,0.7-5.9,0.7l-0.1,4.9c2.3,0.1,7-0.2,7.1-0.2C334.9,354.2,337,337,336.7,320.1z"/>
	</g>
	<polygon class="st3" points="314.6,356.1 307.9,356.2 309.3,290.1 316.1,289 	"/>
	<path class="st3" d="M309.2,293.7l0-4c0,0,4.8-1.2,9.3-1.3c4.5-0.1,0.5,4.1,0.5,4.1C314.2,292.6,309.2,293.7,309.2,293.7z"/>
</g>
<g>
	<polygon class="st3" points="172,356.3 165.4,356.3 166.6,289.7 172.9,289.7 	"/>
	<polygon class="st3" points="166.4,289.6 188.7,289.7 188.5,294.8 166.4,294.6 	"/>
	<polygon class="st3" points="166.8,323.5 187.1,323.3 187.6,328.5 166.7,328.6 	"/>
</g>
<g>
	<path class="st3" d="M208,242.9c0-1.5,0-4.3,0-12c0-20.9,0-34.2,0-34.2l-7-0.1c0,0,0,14.5,0,34.8c0,5.7,0,9.2,0,11.6
		c0,9.6,1.5,21.1,13.8,21.1c11.8,0,13.8-8.1,13.8-21.1c0-4.2,0-6.8,0-11.9l-0.1-34.3l-6.6,0.2L222,231c0,7.9,0,8.6,0,11.9
		c0,6.5,0.5,15.8-7.1,15.8C207.5,258.8,208,245.8,208,242.9z"/>
</g>
<g>
	<path class="st3" d="M174,151.1c0-1.5,0-4.3,0-12c0-20.9,0-35.3,0-35.3h-7c0,0,0,15.5,0,35.7c0,5.7,0,9.2,0,11.6
		c0,9.6,1.5,21.1,13.8,21.1c11.8,0,13.8-8.1,13.8-21.1c0-4.2,0-6.8,0-11.9l-0.1-35.4H188l-0.1,35.4c0,7.9,0,8.6,0,11.9
		c0,6.5,0.5,15.8-7.1,15.8C173.5,167,174,154.1,174,151.1z"/>
</g>
<g>
	<path class="st3" d="M238.7,335.8c0-1.5,0-4.3,0-12c0-20.9,0-34.2,0-34.2l-7-0.1c0,0,0,14.5,0,34.8c0,5.7,0,9.2,0,11.6
		c0,9.6,1.5,21.1,13.8,21.1c11.8,0,13.8-8.1,13.8-21.1c0-4.2,0-6.8,0-11.9l-0.1-34.3l-6.6,0.2l-0.1,34.1c0,7.9,0,8.6,0,11.9
		c0,6.5,0.5,15.8-7.1,15.8C238.2,351.6,238.7,338.7,238.7,335.8z"/>
</g>
<g>
	<path class="st3" d="M303,242.9c0-1.5,0-4.3,0-12c0-20.9,0-34.2,0-34.2l-7-0.1c0,0,0,14.5,0,34.8c0,5.7,0,9.2,0,11.6
		c0,9.6,1.5,21.1,13.8,21.1c11.8,0,13.8-8.1,13.8-21.1c0-4.2,0-6.8,0-11.9l-0.1-34.3l-6.6,0.2L317,231c0,7.9,0,8.6,0,11.9
		c0,6.5,0.5,15.8-7.1,15.8C302.5,258.8,303,245.8,303,242.9z"/>
</g>
<g>
	<path class="st3" d="M240.5,145.7l-0.1,5.1c14.4-4.5,12.9,20.7,12.9,20.7l6.6,0c0,0,1-6.6-3-17.8
		C253.8,144.8,245.5,144.6,240.5,145.7z"/>
	<g>
		<polygon class="st3" points="240,171.5 233.6,171.5 235.6,104.3 242.2,104.3 		"/>
		<path class="st3" d="M240,131.6c0,0,20.8,0.3,20.8-15.1c0-9.4-11.3-11.9-18.8-12.6c-3.7-0.3-6.4-0.2-6.4-0.2l-0.1,5.2l6.3-0.2
			c0,0,12.5-1.8,12.5,7.9c0,5.8-6,9.6-14,9.6L240,131.6z"/>
	</g>
</g>
<g>
	<path class="st3" d="M337.5,238.2l-0.1,5.1c14.4-4.5,12.8,20.2,12.8,20.2l6.6,0c0,0,1.1-6.1-2.9-17.4
		C350.8,237.3,342.5,237.1,337.5,238.2z"/>
	<g>
		<polygon class="st3" points="337,263.5 330.6,263.5 332.6,196.8 339.2,196.8 		"/>
		<path class="st3" d="M337,224.1c0,0,20.8,0.3,20.8-15.1c0-9.4-11.3-11.9-18.8-12.6c-3.7-0.3-6.4-0.2-6.4-0.2l-0.1,5.2l6.3-0.2
			c0,0,12.5-1.8,12.5,7.9c0,5.8-6,9.6-14,9.6L337,224.1z"/>
	</g>
</g>
<g>
	<polygon class="st3" points="237.9,196.4 244.6,196.4 243,263.5 236.6,263.5 	"/>
	<polygon class="st3" points="264.2,263.5 236.4,264 236.6,258.8 264.3,258.4 	"/>
</g>
<g>
	<polygon class="st3" points="398.4,196.4 405.1,196.4 403.5,263.5 397.1,263.5 	"/>
	<polygon class="st3" points="424.7,263.5 396.9,264 397.1,258.8 424.8,258.4 	"/>
</g>
<g>
	<polygon class="st3" points="270.1,144.7 284.8,143.5 285.5,148.4 269.6,149.1 	"/>
	<polygon class="st3" points="291.8,171.5 282.9,104.1 276,103.5 263,171.5 268.6,171.5 278.2,117.7 278.9,117.7 284.7,171.4 	"/>
</g>
<g>
	<polygon class="st3" points="347.7,329.4 362.4,328.2 363.1,333.1 347.2,333.8 	"/>
	<polygon class="st3" points="369.4,356.2 360.5,288.8 353.6,288.2 340.6,356.2 346.2,356.2 355.8,302.4 356.5,302.4 362.3,356.1 	
		"/>
</g>
<g>
	<polygon class="st3" points="370.7,144.6 385.3,143.4 386.1,148.4 370.1,149 	"/>
	<polygon class="st3" points="392.4,171.5 383.4,104 376.5,103.4 363.5,171.5 369.2,171.5 378.7,117.7 379.4,117.6 385.2,171.3 	"/>
</g>
<g>
	<polygon class="st3" points="368.2,237.1 382.8,235.9 383.6,240.9 367.6,241.5 	"/>
	<polygon class="st3" points="389.9,264 380.9,196.5 374,195.9 361,264 366.7,264 376.2,210.2 376.9,210.1 382.7,263.8 	"/>
</g>
<polygon class="st3" points="462.6,289 483.5,344 481.4,289 486.2,289 488.6,356.2 481.7,356.2 461,300.3 461.9,356.1 457,356.2 
	456,289 "/>
<polygon class="st3" points="275.3,289 296.1,344 294,289 298.8,289 301.2,356.2 294.3,356.2 273.6,300.3 274.5,356.1 269.6,356.2 
	268.6,289 "/>
<path class="st3" d="M223.4,320.8c0-4.5-0.2-7.9-0.4-10.5l0-0.7l0,0c0-0.4-0.1-0.8-0.1-1.1c-0.9-12.3-3.8-19.1-14-19.1
	c-9.4,0-12.9,6.7-13.9,19.3c-0.4,4.3-0.4,7.4-0.4,12.1l0,1.6c0,1.2,0,2.4,0,3.4c0,4.5,0.2,7.9,0.4,10.5l0,0.7l0,0
	c0,0.4,0.1,0.8,0.1,1.1c0.9,12.3,3.8,19.1,14,19.1c9.4,0,12.9-6.7,13.9-19.3c0.4-4.3,0.4-7.4,0.4-12.1l0-1.6
	C223.4,322.9,223.4,321.8,223.4,320.8z M209,350.4c-5.8,0-6.7-7.7-7.2-12.4c0-0.1-0.4-7.8-0.4-15.4c0-7.2,0.4-14.2,0.4-14.4
	c0.6-6.5,1.4-12.4,7.2-12.4s6.7,7.7,7.2,12.4c0,0.2,0.4,7.4,0.4,14.7c0,7.4-0.4,14.8-0.4,15C215.6,344.5,214.8,350.4,209,350.4z"/>
</svg>
